<svg width="315" height="50" viewBox="0 0 315 50" fill="none" xmlns="http://www.w3.org/2000/svg">
<g clip-path="url(#clip0_78_166)">
<path d="M315 0H125.243V36.9609H315V0Z" fill="#A8B0B7"/>
<path d="M140.354 27.7054V12.6051H134.455V9.24188H150.316V12.6051H144.389V27.7054H140.361H140.354Z" fill="white"/>
<path d="M153.979 27.7054V9.24188H164.069C165.427 9.24188 166.563 9.48598 167.462 9.9674C168.367 10.4488 169.043 11.1269 169.489 12.0016C169.935 12.8695 170.158 13.873 170.158 15.0054C170.158 16.2055 169.888 17.2701 169.354 18.199C168.82 19.1212 168.036 19.8264 167.022 20.3146L170.78 27.719H166.353L163.109 20.9858H157.987V27.719H153.986L153.979 27.7054ZM157.973 17.799H163.528C164.333 17.799 164.961 17.5549 165.407 17.0599C165.853 16.5649 166.076 15.9004 166.076 15.0528C166.076 14.5172 165.975 14.0493 165.779 13.6696C165.583 13.2831 165.299 12.9915 164.921 12.7949C164.542 12.5983 164.082 12.4966 163.528 12.4966H157.973V17.799Z" fill="white"/>
<path d="M173.618 27.7054L180.701 9.23511H185.641L192.724 27.7054H188.405L187.087 24.071H179.065L177.748 27.7054H173.618ZM180.214 20.8435H185.932L184.296 16.2937C184.222 16.0971 184.141 15.8597 184.039 15.5817C183.938 15.3037 183.837 14.9918 183.729 14.6528C183.62 14.3138 183.519 13.9747 183.418 13.6425C183.316 13.3102 183.228 13.0119 183.134 12.7407H182.972C182.884 13.0797 182.769 13.4798 182.62 13.9408C182.478 14.3951 182.336 14.8359 182.188 15.263C182.046 15.6834 181.931 16.0292 181.836 16.3005L180.201 20.8502L180.214 20.8435Z" fill="white"/>
<path d="M196.157 27.7054V9.24188H203.672C205.585 9.24188 207.213 9.57413 208.558 10.2386C209.903 10.9031 210.93 11.9134 211.66 13.2695C212.383 14.6257 212.748 16.3615 212.748 18.477C212.748 20.5926 212.383 22.3081 211.66 23.671C210.937 25.0339 209.903 26.0509 208.558 26.7154C207.213 27.3799 205.591 27.7122 203.672 27.7122H196.157V27.7054ZM200.158 24.3965H203.645C204.449 24.3965 205.166 24.2812 205.794 24.0439C206.423 23.8133 206.936 23.4675 207.349 23.0065C207.761 22.5454 208.072 21.9758 208.288 21.2842C208.504 20.5926 208.612 19.7925 208.612 18.8771V18.0702C208.612 17.1548 208.504 16.3547 208.288 15.6631C208.072 14.9715 207.761 14.3951 207.349 13.9408C206.936 13.4797 206.416 13.1339 205.794 12.8898C205.166 12.6457 204.449 12.5237 203.645 12.5237H200.158V24.3965Z" fill="white"/>
<path d="M217.08 27.7054V9.24188H231.786V12.5237H221.108V16.6395H230.556V19.8942H221.108V24.3897H231.948V27.6986H217.08V27.7054Z" fill="white"/>
<path d="M235.645 27.7054V26.7358C235.645 25.9289 235.787 25.1898 236.078 24.5253C236.362 23.8608 236.76 23.2506 237.26 22.6946C237.76 22.1386 238.315 21.6097 238.923 21.1079C239.531 20.6062 240.16 20.118 240.802 19.6569C241.532 19.1009 242.228 18.5516 242.883 18.016C243.539 17.4803 244.066 16.8972 244.478 16.2802C244.89 15.6631 245.093 14.9715 245.093 14.2189C245.093 13.8595 245.005 13.5001 244.823 13.1407C244.647 12.7814 244.363 12.483 243.978 12.2389C243.593 11.9948 243.079 11.8728 242.437 11.8728C241.795 11.8728 241.227 11.988 240.802 12.2118C240.369 12.4356 240.045 12.7475 239.822 13.1543C239.599 13.5611 239.484 14.0561 239.484 14.646V15.6157H235.888C235.868 15.5275 235.855 15.3987 235.834 15.2359C235.814 15.0732 235.807 14.8766 235.807 14.646C235.807 13.3374 236.105 12.2593 236.706 11.4185C237.308 10.5777 238.119 9.94709 239.146 9.53348C240.173 9.11986 241.342 8.91644 242.647 8.91644C243.829 8.91644 244.816 9.08596 245.613 9.41143C246.411 9.74367 247.046 10.1844 247.533 10.7336C248.013 11.2829 248.357 11.8728 248.567 12.5102C248.77 13.1475 248.878 13.7646 248.878 14.3545C248.878 15.1953 248.722 15.9682 248.425 16.6666C248.121 17.365 247.709 18.0228 247.188 18.633C246.668 19.2433 246.053 19.8332 245.336 20.396C244.62 20.9588 243.863 21.5215 243.059 22.0776C242.647 22.3623 242.261 22.6403 241.89 22.9116C241.525 23.1828 241.207 23.4337 240.95 23.6778C240.694 23.9219 240.491 24.1592 240.349 24.3897H249.013V27.6987H235.652L235.645 27.7054Z" fill="white"/>
<path d="M256.42 27.7054L251.588 9.23511H255.825L258.508 20.2468C258.562 20.4095 258.616 20.6468 258.67 20.9587C258.724 21.2706 258.778 21.6029 258.833 21.9419C258.887 22.2809 258.934 22.5861 258.968 22.8573H259.103C259.137 22.6607 259.17 22.4369 259.197 22.186C259.225 21.9351 259.258 21.691 259.306 21.4469C259.353 21.2028 259.393 20.9791 259.441 20.7621C259.488 20.5451 259.515 20.3756 259.535 20.2536L262.029 9.24189H266.807L269.355 20.2536C269.409 20.4298 269.463 20.6739 269.517 20.9791C269.571 21.2842 269.625 21.6097 269.679 21.9487C269.734 22.2877 269.781 22.5929 269.815 22.8641H269.95C269.984 22.6674 270.024 22.4505 270.071 22.2199C270.119 21.9894 270.159 21.7521 270.207 21.508C270.254 21.2639 270.301 21.0401 270.355 20.8231C270.409 20.6061 270.457 20.4163 270.49 20.2603L273.146 9.24867H276.985L272.126 27.719H267.564L264.854 16.3547C264.8 16.1038 264.739 15.8123 264.678 15.48C264.618 15.1478 264.557 14.8223 264.503 14.4968C264.449 14.1714 264.401 13.8866 264.368 13.6357H264.259C264.226 13.8866 264.185 14.1849 264.138 14.524C264.09 14.863 264.036 15.1952 263.976 15.5207C263.915 15.8462 263.854 16.1242 263.8 16.3547L261.117 27.719H256.42V27.7054Z" fill="white"/>
<path d="M280.445 27.7054V9.24188H284.446V27.7122H280.445V27.7054Z" fill="white"/>
<path d="M289.636 27.7054V9.24188H293.313L300.72 19.2026C300.828 19.3314 300.963 19.5009 301.125 19.7247C301.288 19.9484 301.436 20.1722 301.585 20.3824C301.727 20.5994 301.828 20.7689 301.882 20.8909H302.018V9.24188H305.802V27.7122H302.126L294.556 17.5074C294.381 17.2565 294.191 16.9785 293.996 16.6734C293.8 16.3683 293.658 16.1377 293.563 15.975H293.428V27.7122H289.643L289.636 27.7054Z" fill="white"/>
<path d="M36.839 9.24193H23.9443V36.9609H12.8947V9.24193H0V0H36.839V9.24193ZM107.746 0V26.7969H104.522V0H94.3919V26.7969C92.6145 26.7969 91.1682 25.3458 91.1682 23.5625V0H81.0377V26.7969C81.0377 32.4112 85.5724 36.9609 91.1682 36.9609H117.877V0H107.746ZM40.5222 34.6691L73.063 2.01383C71.3531 0.684839 69.2919 0.00678058 67.2239 0.0135612V0H40.5222V9.24193H55.2551L40.5222 24.0236V34.6691ZM62.6283 27.719H77.3544V36.9609H42.793L75.2459 4.4006C77.7194 8.25197 77.1517 13.4323 73.6712 16.6328L62.6283 27.719Z" fill="#FF0000"/>
<path d="M134.84 49.8916L137.3 43.5924H138.611L141.084 49.8916H139.989L139.429 48.4337H136.455L135.894 49.8916H134.84ZM136.779 47.559H139.084L138.381 45.7147C138.361 45.6605 138.334 45.5859 138.3 45.4842C138.266 45.3893 138.226 45.2808 138.185 45.1655C138.144 45.0502 138.104 44.9282 138.063 44.8129C138.023 44.6976 137.989 44.5824 137.955 44.4874H137.901C137.867 44.6027 137.82 44.7383 137.766 44.9011C137.712 45.057 137.658 45.213 137.604 45.3621C137.55 45.5113 137.509 45.6266 137.469 45.7215L136.773 47.5658L136.779 47.559Z" fill="black"/>
<path d="M145.369 49.8916V43.5924H148.674C149.12 43.5924 149.492 43.6738 149.782 43.8297C150.073 43.9857 150.296 44.2094 150.444 44.4942C150.593 44.779 150.661 45.1113 150.661 45.491C150.661 45.9114 150.566 46.2775 150.377 46.5962C150.188 46.9081 149.917 47.1386 149.573 47.2878L150.884 49.8983H149.769L148.579 47.4641H146.403V49.8983H145.376L145.369 49.8916ZM146.396 46.5894H148.593C148.924 46.5894 149.174 46.4945 149.356 46.2979C149.539 46.1012 149.627 45.83 149.627 45.4774C149.627 45.2604 149.586 45.0841 149.505 44.9282C149.424 44.779 149.309 44.6637 149.16 44.5824C149.005 44.501 148.816 44.4603 148.593 44.4603H146.396V46.5826V46.5894Z" fill="black"/>
<path d="M128.25 50C127.608 50 127.068 49.8848 126.615 49.6542C126.169 49.4237 125.824 49.0711 125.588 48.5829C125.351 48.1015 125.23 47.4844 125.23 46.7386C125.23 45.6401 125.493 44.8197 126.027 44.284C126.561 43.7483 127.304 43.4839 128.257 43.4839C128.784 43.4839 129.251 43.572 129.67 43.7483C130.089 43.9246 130.42 44.1891 130.656 44.5417C130.9 44.8943 131.015 45.3418 131.015 45.8842H129.974C129.974 45.5452 129.906 45.2672 129.764 45.0366C129.622 44.8129 129.426 44.6366 129.163 44.5213C128.906 44.4061 128.602 44.345 128.264 44.345C127.838 44.345 127.473 44.4264 127.183 44.5959C126.885 44.7654 126.662 45.0163 126.514 45.3553C126.365 45.6944 126.291 46.1215 126.291 46.6436V46.8471C126.291 47.3692 126.365 47.7963 126.514 48.1354C126.662 48.4744 126.885 48.7185 127.176 48.8812C127.467 49.044 127.831 49.1253 128.264 49.1253C128.615 49.1253 128.926 49.0711 129.19 48.9558C129.453 48.8405 129.656 48.671 129.798 48.4473C129.94 48.2235 130.014 47.9387 130.014 47.5997H131.021C131.021 48.1421 130.9 48.5964 130.663 48.949C130.42 49.3016 130.095 49.5661 129.676 49.7356C129.257 49.9051 128.784 49.9932 128.25 49.9932V50Z" fill="black"/>
<path d="M160.717 49.8916V43.5924H163.846C164.292 43.5924 164.664 43.6738 164.954 43.8433C165.245 44.006 165.468 44.2366 165.617 44.5281C165.765 44.8197 165.84 45.1655 165.84 45.5588C165.84 45.9521 165.759 46.3046 165.603 46.6098C165.448 46.9149 165.218 47.1454 164.914 47.3149C164.61 47.4777 164.245 47.5658 163.812 47.5658H161.744V49.8983H160.717V49.8916ZM161.744 46.6776H163.765C164.089 46.6776 164.339 46.5826 164.529 46.386C164.718 46.1894 164.806 45.9181 164.806 45.5656C164.806 45.335 164.765 45.1384 164.684 44.9756C164.603 44.8129 164.488 44.6909 164.339 44.6027C164.184 44.5146 163.995 44.4739 163.765 44.4739H161.744V46.6776Z" fill="black"/>
<path d="M169.171 49.8916L171.631 43.5924H172.942L175.416 49.8916H174.321L173.76 48.4337H170.787L170.226 49.8916H169.171ZM171.111 47.559H173.416L172.713 45.7147C172.692 45.6605 172.665 45.5859 172.632 45.4842C172.598 45.3893 172.557 45.2808 172.517 45.1655C172.476 45.0502 172.436 44.9282 172.395 44.8129C172.355 44.6976 172.321 44.5824 172.287 44.4874H172.233C172.199 44.6027 172.152 44.7383 172.098 44.9011C172.044 45.057 171.99 45.213 171.936 45.3621C171.881 45.5113 171.841 45.6266 171.8 45.7215L171.104 47.5658L171.111 47.559Z" fill="black"/>
<path d="M179.701 49.8916V43.5924H183.005C183.452 43.5924 183.823 43.6738 184.114 43.8297C184.404 43.9857 184.627 44.2094 184.776 44.4942C184.925 44.779 184.992 45.1113 184.992 45.491C184.992 45.9114 184.898 46.2775 184.709 46.5962C184.519 46.9081 184.249 47.1386 183.904 47.2878L185.215 49.8983H184.1L182.911 47.4641H180.735V49.8983H179.707L179.701 49.8916ZM180.728 46.5894H182.924C183.256 46.5894 183.506 46.4945 183.688 46.2979C183.871 46.1012 183.958 45.83 183.958 45.4774C183.958 45.2604 183.918 45.0841 183.837 44.9282C183.756 44.779 183.641 44.6637 183.492 44.5824C183.337 44.501 183.147 44.4603 182.924 44.4603H180.728V46.5826V46.5894Z" fill="black"/>
<path d="M191.25 49.8916V44.4739H189.176V43.5924H194.373V44.4739H192.278V49.8916H191.25Z" fill="black"/>
<path d="M201.07 50C200.725 50 200.401 49.9661 200.083 49.8915C199.766 49.8237 199.489 49.7085 199.239 49.5525C198.995 49.3966 198.799 49.1999 198.664 48.9558C198.522 48.7117 198.455 48.4269 198.455 48.0879C198.455 48.054 198.455 48.0133 198.455 47.9794C198.455 47.9455 198.455 47.9184 198.455 47.8913H199.482C199.482 47.8913 199.482 47.9387 199.482 47.9726C199.482 48.0065 199.482 48.0404 199.482 48.0676C199.482 48.2913 199.55 48.488 199.685 48.6439C199.82 48.7999 200.009 48.9219 200.246 49.0033C200.489 49.0846 200.766 49.1253 201.077 49.1253C201.246 49.1253 201.415 49.1118 201.57 49.0914C201.726 49.0711 201.874 49.0372 202.003 48.9897C202.131 48.9423 202.246 48.888 202.347 48.8134C202.442 48.7456 202.523 48.6575 202.577 48.5625C202.631 48.4676 202.658 48.3523 202.658 48.2235C202.658 48.0269 202.604 47.8641 202.489 47.7353C202.374 47.6065 202.226 47.498 202.03 47.4166C201.841 47.3285 201.624 47.2539 201.381 47.1861C201.138 47.1183 200.894 47.0505 200.638 46.9827C200.381 46.9149 200.131 46.8335 199.894 46.7453C199.651 46.6504 199.435 46.5419 199.245 46.4131C199.056 46.2843 198.901 46.1148 198.786 45.9181C198.671 45.7215 198.617 45.4774 198.617 45.1858C198.617 44.8942 198.678 44.6637 198.793 44.4535C198.908 44.2365 199.076 44.0602 199.293 43.9178C199.516 43.7755 199.773 43.667 200.077 43.5924C200.381 43.5178 200.725 43.4839 201.111 43.4839C201.442 43.4839 201.753 43.5178 202.043 43.5924C202.334 43.6602 202.591 43.7687 202.814 43.9178C203.03 44.067 203.206 44.2501 203.327 44.4806C203.449 44.7112 203.517 44.9756 203.517 45.2875V45.396H202.503V45.274C202.503 45.0773 202.442 44.9146 202.327 44.779C202.212 44.6434 202.05 44.5417 201.841 44.4671C201.631 44.3925 201.395 44.3586 201.117 44.3586C200.793 44.3586 200.523 44.3925 200.3 44.4535C200.077 44.5145 199.915 44.6095 199.8 44.718C199.685 44.8332 199.631 44.9688 199.631 45.1248C199.631 45.3011 199.691 45.4503 199.806 45.5587C199.921 45.674 200.077 45.7689 200.266 45.8503C200.455 45.9317 200.671 45.9995 200.915 46.0673C201.158 46.1351 201.401 46.1961 201.658 46.2707C201.908 46.3385 202.158 46.4199 202.402 46.5148C202.645 46.6097 202.861 46.7182 203.05 46.8538C203.24 46.9894 203.395 47.1522 203.51 47.3556C203.625 47.5522 203.686 47.7963 203.686 48.0879C203.686 48.5422 203.571 48.9084 203.348 49.1931C203.125 49.4779 202.814 49.6813 202.422 49.8102C202.03 49.939 201.577 50 201.07 50Z" fill="black"/>
<path d="M213.64 49.8916V43.5924H216.067C216.715 43.5924 217.263 43.7009 217.722 43.9247C218.182 44.1484 218.533 44.4942 218.777 44.9553C219.02 45.4164 219.148 46.0131 219.148 46.7386C219.148 47.4641 219.027 48.054 218.777 48.5219C218.527 48.9897 218.175 49.3288 217.722 49.5525C217.27 49.7763 216.715 49.8848 216.067 49.8848H213.64V49.8916ZM214.668 49.0101H216.06C216.384 49.0101 216.668 48.9694 216.925 48.8813C217.175 48.7931 217.391 48.6643 217.567 48.488C217.743 48.3117 217.871 48.0879 217.959 47.8099C218.047 47.5387 218.094 47.2132 218.094 46.8403V46.6505C218.094 46.2707 218.047 45.9453 217.959 45.674C217.871 45.4028 217.743 45.1791 217.567 44.996C217.391 44.8197 217.182 44.6841 216.925 44.6027C216.675 44.5146 216.384 44.4739 216.06 44.4739H214.668V49.0101Z" fill="black"/>
<path d="M223.778 49.8916V43.5924H224.805V49.8916H223.778Z" fill="black"/>
<path d="M240.781 49.8916V44.4739H238.707V43.5924H243.904V44.4739H241.809V49.8916H240.781Z" fill="black"/>
<path d="M248.269 49.8916V43.5924H251.574C252.02 43.5924 252.392 43.6738 252.683 43.8297C252.973 43.9857 253.196 44.2094 253.345 44.4942C253.494 44.779 253.561 45.1113 253.561 45.491C253.561 45.9114 253.467 46.2775 253.277 46.5962C253.088 46.9081 252.818 47.1386 252.473 47.2878L253.784 49.8983H252.669L251.48 47.4641H249.303V49.8983H248.276L248.269 49.8916ZM249.29 46.5894H251.486C251.818 46.5894 252.068 46.4945 252.25 46.2979C252.433 46.1012 252.52 45.83 252.52 45.4774C252.52 45.2604 252.48 45.0841 252.399 44.9282C252.318 44.779 252.203 44.6637 252.054 44.5824C251.899 44.501 251.709 44.4603 251.486 44.4603H249.29V46.5826V46.5894Z" fill="black"/>
<path d="M258.272 49.8916V43.5924H259.299V49.8916H258.272Z" fill="black"/>
<path d="M264.212 49.8916V43.5924H267.544C267.889 43.5924 268.199 43.6534 268.456 43.7823C268.72 43.9111 268.923 44.0874 269.071 44.3179C269.22 44.5485 269.294 44.8197 269.294 45.1384C269.294 45.3757 269.247 45.5927 269.159 45.7893C269.071 45.986 268.95 46.1487 268.794 46.2843C268.639 46.4199 268.463 46.5216 268.267 46.5894V46.6233C268.49 46.6708 268.693 46.7657 268.875 46.8946C269.058 47.0234 269.2 47.1997 269.308 47.4099C269.416 47.6201 269.47 47.871 269.47 48.1693C269.47 48.5694 269.382 48.8948 269.206 49.1525C269.031 49.4101 268.801 49.6 268.517 49.7153C268.233 49.8373 267.902 49.8916 267.537 49.8916H264.205H264.212ZM265.233 46.2233H267.301C267.497 46.2233 267.666 46.1894 267.807 46.1148C267.949 46.0402 268.057 45.9385 268.132 45.8029C268.206 45.6673 268.247 45.5181 268.247 45.3554C268.247 45.057 268.166 44.8333 268.003 44.6909C267.841 44.5485 267.632 44.4739 267.368 44.4739H265.239V46.2301L265.233 46.2233ZM265.233 49.0101H267.456C267.74 49.0101 267.97 48.9355 268.145 48.7863C268.328 48.6372 268.416 48.3931 268.416 48.054C268.416 47.8506 268.375 47.6811 268.301 47.5387C268.226 47.3963 268.112 47.2878 267.956 47.2065C267.801 47.1319 267.611 47.0912 267.382 47.0912H265.233V49.0101Z" fill="black"/>
<path d="M285.69 49.8916V44.4739H283.615V43.5924H288.812V44.4739H286.717V49.8916H285.69Z" fill="black"/>
<path d="M293.171 49.8916V43.5924H294.198V49.8916H293.171Z" fill="black"/>
<path d="M276.627 50C276.093 50 275.627 49.9119 275.235 49.7356C274.843 49.5593 274.545 49.288 274.336 48.9219C274.126 48.5557 274.025 48.0879 274.025 47.5251V43.5856H275.052V47.5522C275.052 48.0743 275.187 48.4676 275.464 48.7253C275.742 48.9897 276.127 49.1185 276.627 49.1185C277.127 49.1185 277.526 48.9897 277.81 48.7253C278.093 48.4608 278.235 48.0675 278.235 47.5522V43.5856H279.263V47.5251C279.263 48.0879 279.154 48.5557 278.945 48.9219C278.735 49.288 278.431 49.5593 278.039 49.7356C277.647 49.9119 277.174 50 276.627 50Z" fill="black"/>
<path d="M232.036 50C231.692 50 231.367 49.9661 231.05 49.8915C230.732 49.8237 230.455 49.7085 230.205 49.5525C229.961 49.3966 229.766 49.1999 229.63 48.9558C229.488 48.7117 229.421 48.4269 229.421 48.0879C229.421 48.054 229.421 48.0133 229.421 47.9794C229.421 47.9455 229.421 47.9184 229.421 47.8913H230.448C230.448 47.8913 230.448 47.9387 230.448 47.9726C230.448 48.0065 230.448 48.0404 230.448 48.0676C230.448 48.2913 230.516 48.488 230.651 48.6439C230.786 48.7999 230.975 48.9219 231.212 49.0033C231.455 49.0846 231.732 49.1253 232.043 49.1253C232.212 49.1253 232.381 49.1118 232.536 49.0914C232.692 49.0711 232.84 49.0372 232.969 48.9897C233.097 48.9423 233.212 48.888 233.314 48.8134C233.408 48.7456 233.489 48.6575 233.543 48.5625C233.597 48.4676 233.624 48.3523 233.624 48.2235C233.624 48.0269 233.57 47.8641 233.455 47.7353C233.341 47.6065 233.192 47.498 232.996 47.4166C232.807 47.3285 232.59 47.2539 232.347 47.1861C232.104 47.1183 231.861 47.0505 231.604 46.9827C231.347 46.9149 231.097 46.8335 230.86 46.7453C230.617 46.6504 230.401 46.5419 230.212 46.4131C230.022 46.2843 229.867 46.1148 229.752 45.9181C229.637 45.7215 229.583 45.4774 229.583 45.1858C229.583 44.8942 229.644 44.6637 229.759 44.4535C229.874 44.2365 230.043 44.0602 230.259 43.9178C230.482 43.7755 230.739 43.667 231.043 43.5924C231.347 43.5178 231.692 43.4839 232.077 43.4839C232.408 43.4839 232.719 43.5178 233.009 43.5924C233.3 43.6602 233.557 43.7687 233.78 43.9178C233.996 44.067 234.172 44.2501 234.293 44.4806C234.415 44.7112 234.483 44.9756 234.483 45.2875V45.396H233.469V45.274C233.469 45.0773 233.408 44.9146 233.293 44.779C233.178 44.6434 233.016 44.5417 232.807 44.4671C232.597 44.3925 232.361 44.3586 232.084 44.3586C231.759 44.3586 231.489 44.3925 231.266 44.4535C231.043 44.5145 230.881 44.6095 230.766 44.718C230.651 44.8332 230.597 44.9688 230.597 45.1248C230.597 45.3011 230.658 45.4503 230.772 45.5587C230.887 45.674 231.043 45.7689 231.232 45.8503C231.421 45.9317 231.638 45.9995 231.881 46.0673C232.124 46.1351 232.367 46.1961 232.624 46.2707C232.874 46.3385 233.124 46.4199 233.368 46.5148C233.611 46.6097 233.827 46.7182 234.016 46.8538C234.206 46.9894 234.361 47.1522 234.476 47.3556C234.591 47.5522 234.652 47.7963 234.652 48.0879C234.652 48.5422 234.537 48.9084 234.314 49.1931C234.091 49.4779 233.78 49.6813 233.388 49.8102C232.996 49.939 232.543 50 232.036 50Z" fill="black"/>
<path d="M301.977 50C301.328 50 300.767 49.878 300.301 49.6407C299.828 49.4033 299.463 49.044 299.213 48.5558C298.963 48.0743 298.834 47.4641 298.834 46.7386C298.834 46.013 298.963 45.396 299.213 44.9146C299.463 44.4332 299.828 44.0738 300.301 43.8365C300.774 43.5992 301.335 43.4771 301.977 43.4771C302.619 43.4771 303.2 43.5992 303.673 43.8365C304.14 44.0738 304.504 44.4332 304.755 44.9146C305.005 45.396 305.133 45.9995 305.133 46.7386C305.133 47.4777 305.005 48.0743 304.755 48.5558C304.504 49.0372 304.14 49.4033 303.673 49.6407C303.2 49.878 302.639 50 301.977 50ZM301.977 49.1253C302.315 49.1253 302.612 49.0779 302.869 48.9897C303.126 48.8948 303.349 48.7592 303.525 48.5693C303.707 48.3795 303.842 48.1421 303.937 47.8506C304.031 47.5658 304.079 47.2268 304.079 46.8471V46.6436C304.079 46.2504 304.031 45.9113 303.937 45.6266C303.842 45.3418 303.707 45.0977 303.525 44.9078C303.342 44.718 303.126 44.5756 302.869 44.4874C302.612 44.3925 302.315 44.3518 301.977 44.3518C301.639 44.3518 301.355 44.3993 301.092 44.4874C300.835 44.5823 300.612 44.718 300.429 44.9078C300.247 45.0977 300.112 45.335 300.024 45.6266C299.929 45.9113 299.889 46.2571 299.889 46.6436V46.8471C299.889 47.2268 299.936 47.559 300.024 47.8506C300.118 48.1354 300.254 48.3795 300.429 48.5693C300.612 48.7592 300.828 48.9016 301.092 48.9897C301.348 49.0847 301.646 49.1253 301.977 49.1253Z" fill="black"/>
<path d="M309.749 49.8916V43.5924H310.736L313.601 47.5387C313.635 47.5726 313.675 47.6268 313.723 47.6947C313.77 47.7625 313.811 47.8303 313.858 47.8981C313.898 47.9659 313.932 48.0201 313.952 48.0608H314V43.5924H314.986V49.8916H314.034L311.134 45.8978C311.087 45.8232 311.026 45.7283 310.952 45.6198C310.877 45.5045 310.823 45.4164 310.79 45.3554H310.742V49.8916H309.756H309.749Z" fill="black"/>
</g>
<defs>
<clipPath id="clip0_78_166">
<rect width="315" height="50" fill="white"/>
</clipPath>
</defs>
</svg>
