<svg width="50" height="50" viewBox="0 0 50 50" fill="none" xmlns="http://www.w3.org/2000/svg">
<path d="M12.5 41.6666C10.7639 41.6666 9.28817 41.0589 8.0729 39.8437C6.85762 38.6284 6.24998 37.1527 6.24998 35.4166H2.08331V12.4999C2.08331 11.3541 2.4913 10.3732 3.30727 9.55721C4.12324 8.74124 5.10415 8.33325 6.24998 8.33325H35.4166V16.6666H41.6666L47.9166 24.9999V35.4166H43.75C43.75 37.1527 43.1423 38.6284 41.9271 39.8437C40.7118 41.0589 39.2361 41.6666 37.5 41.6666C35.7639 41.6666 34.2882 41.0589 33.0729 39.8437C31.8576 38.6284 31.25 37.1527 31.25 35.4166H18.75C18.75 37.1527 18.1423 38.6284 16.9271 39.8437C15.7118 41.0589 14.2361 41.6666 12.5 41.6666ZM12.5 37.4999C13.0903 37.4999 13.585 37.3003 13.9844 36.901C14.3837 36.5017 14.5833 36.0069 14.5833 35.4166C14.5833 34.8263 14.3837 34.3315 13.9844 33.9322C13.585 33.5329 13.0903 33.3333 12.5 33.3333C11.9097 33.3333 11.4149 33.5329 11.0156 33.9322C10.6163 34.3315 10.4166 34.8263 10.4166 35.4166C10.4166 36.0069 10.6163 36.5017 11.0156 36.901C11.4149 37.3003 11.9097 37.4999 12.5 37.4999ZM37.5 37.4999C38.0903 37.4999 38.585 37.3003 38.9844 36.901C39.3837 36.5017 39.5833 36.0069 39.5833 35.4166C39.5833 34.8263 39.3837 34.3315 38.9844 33.9322C38.585 33.5329 38.0903 33.3333 37.5 33.3333C36.9097 33.3333 36.4149 33.5329 36.0156 33.9322C35.6163 34.3315 35.4166 34.8263 35.4166 35.4166C35.4166 36.0069 35.6163 36.5017 36.0156 36.901C36.4149 37.3003 36.9097 37.4999 37.5 37.4999ZM35.4166 27.0833H44.2708L39.5833 20.8333H35.4166V27.0833Z" fill="#FF0000"/>
</svg>
