<svg width="256" height="80" viewBox="0 0 256 80" fill="none" xmlns="http://www.w3.org/2000/svg">
<path d="M80.0055 20.0037H52.0014V80H28.0041V20.0037H0V0H80.0055V20.0037ZM233.999 0V58.0004H226.998V0H204.997V58.0004C201.137 58.0004 197.996 54.8597 197.996 50.9998V0H175.995V58.0004C175.995 70.1523 185.843 80 197.996 80H256V0H233.999ZM88.0046 75.0394L158.675 4.35883C154.962 1.4823 150.485 0.0146762 145.994 0.0293524V0H88.0046V20.0037H120.001L88.0046 51.9978V75.0394ZM136.014 59.9963H167.995V80H92.9361L163.416 9.52486C168.788 17.8609 167.555 29.0736 159.996 36.0007L136.014 59.9963Z" fill="#A8B0B7"/>
</svg>
